<svg width="49" height="30" viewBox="0 0 49 30" fill="none" xmlns="http://www.w3.org/2000/svg">
<path d="M24.3709 0C26.1546 0 27.8652 0.708558 29.1262 1.96998C30.3872 3.23101 31.0958 4.94161 31.0958 6.72523C31.0958 8.50851 30.3873 10.2191 29.1262 11.4805C27.8652 12.7415 26.1546 13.4501 24.3709 13.4501C22.5873 13.4501 20.8767 12.7416 19.6157 11.4805C18.3547 10.2191 17.6461 8.50851 17.6461 6.72523C17.6461 4.94161 18.3546 3.23101 19.6157 1.96998C20.8767 0.708593 22.5873 0 24.3709 0ZM3.04614 6.93056C3.04614 8.36263 3.61496 9.73621 4.62783 10.7487C5.64037 11.7616 7.01395 12.3304 8.44601 12.3304C9.87808 12.3304 11.2513 11.7616 12.2642 10.7487C13.2767 9.73621 13.8455 8.36263 13.8455 6.93056C13.8455 5.49849 13.2767 4.12526 12.2642 3.11238C11.2513 2.09984 9.87808 1.53103 8.44601 1.53103C7.01395 1.53103 5.64037 2.09986 4.62783 3.11238C3.61495 4.12526 3.04614 5.49849 3.04614 6.93056ZM45.6957 6.93056C45.6957 5.49849 45.1269 4.12526 44.1141 3.11238C43.1015 2.09984 41.7279 1.53103 40.2959 1.53103C38.8638 1.53103 37.4906 2.09986 36.4777 3.11238C35.4651 4.12526 34.8963 5.49849 34.8963 6.93056C34.8963 8.36263 35.4652 9.73621 36.4777 10.7487C37.4906 11.7616 38.8638 12.3304 40.2959 12.3304C41.7286 12.3325 43.1033 11.7643 44.1165 10.7511C45.1297 9.73785 45.6978 8.36324 45.6958 6.93047L45.6957 6.93056ZM15.5747 16.3979C14.2113 14.9662 11.8122 13.801 8.43844 13.801C2.93212 13.8006 0 16.8929 0 19.2005V23.5036C0 24.1091 0.490958 24.6001 1.09688 24.6001H11.3476V22.8104C11.3476 20.5028 12.8708 18.0963 15.5744 16.398L15.5747 16.3979ZM40.3036 13.801C36.9298 13.801 34.5308 14.9662 33.1674 16.3979C35.871 18.0962 37.3942 20.5031 37.3942 22.8107V24.6004L47.6449 24.6C47.936 24.6 48.2148 24.4848 48.4205 24.2791C48.6262 24.0734 48.7418 23.7942 48.7418 23.5035V19.2005C48.7418 16.8928 45.8096 13.8006 40.3033 13.8006L40.3036 13.801ZM24.3709 15.621C16.8691 15.621 12.8712 19.7261 12.8712 22.8107V28.9035V28.9031C12.8712 29.509 13.3622 30 13.9681 30H34.775C35.3809 30 35.8719 29.509 35.8719 28.9031V22.8103C35.8719 19.7258 31.8734 15.621 24.3722 15.621L24.3709 15.621Z" fill="white" fill-opacity="0.89"/>
</svg>
