<svg width="24" height="30" viewBox="0 0 24 30" fill="none" xmlns="http://www.w3.org/2000/svg">
<path d="M12.0234 0C13.807 0 15.5176 0.708558 16.7786 1.96998C18.0397 3.23101 18.7482 4.94161 18.7482 6.72523C18.7482 8.50851 18.0397 10.2191 16.7786 11.4805C15.5176 12.7415 13.807 13.4501 12.0234 13.4501C10.2397 13.4501 8.52914 12.7416 7.2681 11.4805C6.00707 10.2191 5.29848 8.50851 5.29848 6.72523C5.29848 4.94161 6.00703 3.23101 7.2681 1.96998C8.52914 0.708593 10.2397 0 12.0234 0ZM12.0234 15.621C4.52156 15.621 0.523636 19.7261 0.523636 22.8107V28.9035C0.523636 29.5093 1.01459 30 1.62051 30H22.4274C23.0333 30 23.5243 29.509 23.5243 28.9031V22.8103C23.5243 19.7258 19.5259 15.621 12.0246 15.621L12.0234 15.621Z" fill="white" fill-opacity="0.89"/>
</svg>
