<svg width="18" height="24" viewBox="0 0 18 24" fill="none" xmlns="http://www.w3.org/2000/svg">
<path d="M8.99662 0C10.3928 0 11.7276 0.563969 12.7151 1.57354C13.7026 2.58312 14.2543 3.94778 14.2543 5.37511C14.2543 6.80244 13.7026 8.1671 12.7151 9.17667C11.7276 10.1862 10.3928 10.7502 8.99662 10.7502C7.60048 10.7502 6.26563 10.1862 5.27811 9.17667C4.2906 8.17406 3.73895 6.8094 3.73895 5.38207C3.73895 3.95474 4.2906 2.59008 5.27811 1.5805C6.26563 0.563969 7.60048 0 8.99662 0Z" fill="black"/>
<path d="M8.9966 12.498C3.12599 12.498 0 15.7774 0 18.2491V23.1229C0 23.6103 0.381385 24.0002 0.858116 24.0002H17.1419C17.6186 24.0002 18 23.6103 18 23.1229V18.2491C18 15.7774 14.8672 12.498 8.9966 12.498Z" fill="black"/>
</svg>
