<svg width="18" height="24" viewBox="0 0 18 24" fill="none" xmlns="http://www.w3.org/2000/svg">
<path d="M8.99656 0C10.3927 0 11.7275 0.563969 12.7151 1.57354C13.7026 2.58312 14.2542 3.94778 14.2542 5.37511C14.2542 6.80244 13.7026 8.1671 12.7151 9.17667C11.7275 10.1862 10.3927 10.7502 8.99656 10.7502C7.60042 10.7502 6.26557 10.1862 5.27805 9.17667C4.29054 8.17406 3.73889 6.8094 3.73889 5.38207C3.73889 3.95474 4.29054 2.59008 5.27805 1.5805C6.26557 0.563969 7.60042 0 8.99656 0Z" fill="black"/>
<path d="M8.9966 12.4978C3.12599 12.4978 0 15.7772 0 18.2489V23.1227C0 23.6101 0.381385 24 0.858116 24H17.1419C17.6186 24 18 23.6101 18 23.1227V18.2489C18 15.7772 14.8672 12.4978 8.9966 12.4978Z" fill="black"/>
</svg>
