<svg width="26" height="24" viewBox="0 0 26 24" fill="none" xmlns="http://www.w3.org/2000/svg">
<g clip-path="url(#clip0_194_1062)">
<path d="M0.6584 10.8273L5.54678 14.3809C6.10597 14.7867 6.34047 15.5038 6.12401 16.1621L4.25704 21.9074C3.77903 23.373 5.4611 24.5951 6.71026 23.6886L11.5986 20.1396C12.1578 19.7337 12.9109 19.7337 13.4701 20.1396L18.3585 23.6886C19.6077 24.5951 21.2897 23.373 20.8117 21.9074L18.9402 16.1576C18.7283 15.4992 18.9583 14.7822 19.5175 14.3764L24.4013 10.8273C25.6505 9.92089 25.0101 7.94569 23.4633 7.94569H17.425C16.7351 7.94569 16.1217 7.49925 15.9098 6.84536L14.0473 1.10015C13.5693 -0.369972 11.4949 -0.369972 11.0169 1.10015L9.14994 6.84536C8.93799 7.50376 8.32469 7.94569 7.63472 7.94569H1.59639C0.0541159 7.94569 -0.586244 9.92089 0.6584 10.8273Z" fill="black"/>
</g>
<defs>
<clipPath id="clip0_194_1062">
<rect width="25.0688" height="24" fill="white"/>
</clipPath>
</defs>
</svg>
