<svg width="39" height="24" viewBox="0 0 39 24" fill="none" xmlns="http://www.w3.org/2000/svg">
<g clip-path="url(#clip0_194_1059)">
<path d="M19.2 0C20.6057 0 21.9497 0.563969 22.944 1.57354C23.9383 2.58312 24.4937 3.94778 24.4937 5.37511C24.4937 6.80244 23.9383 8.1671 22.944 9.17667C21.9497 10.1862 20.6057 10.7502 19.2 10.7502C17.7943 10.7502 16.4503 10.1862 15.456 9.17667C14.4617 8.1671 13.9063 6.80244 13.9063 5.37511C13.9063 3.94778 14.4617 2.58312 15.456 1.57354C16.4503 0.563969 17.7943 0 19.2 0ZM2.4 5.54221C2.4 6.69104 2.84571 7.78416 3.648 8.59878C4.44343 9.40644 5.52686 9.86597 6.65829 9.86597C7.78971 9.86597 8.86629 9.4134 9.66857 8.59878C10.464 7.79112 10.9166 6.69104 10.9166 5.54221C10.9166 4.39339 10.4709 3.30026 9.66857 2.48564C8.86629 1.67798 7.78286 1.22541 6.65143 1.22541C5.52 1.22541 4.44343 1.67798 3.64114 2.4926C2.84571 3.30026 2.4 4.40035 2.4 5.54221ZM36 5.54221C36 4.39339 35.5543 3.30026 34.752 2.48564C33.9566 1.67798 32.8731 1.21845 31.7417 1.21845C30.6103 1.21845 29.5337 1.67102 28.7314 2.48564C27.936 3.2933 27.4834 4.39339 27.4834 5.54221C27.4834 6.69104 27.9291 7.78416 28.7314 8.59878C29.5269 9.40644 30.6103 9.86597 31.7417 9.86597C32.8731 9.86597 33.9566 9.4134 34.752 8.60574C35.5474 7.79808 36 6.69104 36 5.54221ZM12.2674 13.1175C11.1909 11.9756 9.30514 11.0426 6.64457 11.0426C2.304 11.0426 0 13.5144 0 15.3594V18.799C0 19.2863 0.384 19.6762 0.864 19.6762H8.94171V18.2419C8.94171 16.4038 10.1417 14.4752 12.2674 13.1175ZM31.7486 11.0426C29.088 11.0426 27.2023 11.9756 26.1257 13.1175C28.2583 14.4752 29.4583 16.4038 29.4583 18.2489V19.6832H37.536C37.7623 19.6832 37.9817 19.5927 38.1463 19.4256C38.3109 19.2585 38.4 19.0357 38.4 18.8059V15.3664C38.4 13.5144 36.0891 11.0426 31.7486 11.0426ZM19.2 12.4978C13.2891 12.4978 10.1417 15.7842 10.1417 18.2489V23.1227C10.1417 23.6101 10.5257 24 11.0057 24H27.4011C27.8811 24 28.2651 23.6101 28.2651 23.1227V18.2489C28.2583 15.7772 25.1109 12.4978 19.2 12.4978Z" fill="black"/>
</g>
<defs>
<clipPath id="clip0_194_1059">
<rect width="38.4" height="24" fill="white"/>
</clipPath>
</defs>
</svg>
